<?xml version="1.0" encoding="UTF-8"?>
<svg id="Capa_2" xmlns="http://www.w3.org/2000/svg" xmlns:xlink="http://www.w3.org/1999/xlink" viewBox="0 0 20 28.57">
  <defs>
    <style>
      .cls-1 {
        mask: url(#mask-1);
      }

      .cls-2 {
        fill: #fff;
      }

      .cls-3 {
        mask: url(#mask);
      }

      .cls-4 {
        mask: url(#mask-2);
      }

      .cls-5 {
        fill: #235b4e;
      }

      .cls-6 {
        fill: #fefefe;
      }
    </style>
    <mask id="mask" x="0" y="0" width="20" height="28.57" maskUnits="userSpaceOnUse">
      <g id="mask0_0_1">
        <path class="cls-2" d="M0,0h20v28.57H0V0Z"/>
      </g>
    </mask>
    <mask id="mask-1" x="5" y="5" width="10" height="10" maskUnits="userSpaceOnUse">
      <g id="mask1_0_1">
        <path class="cls-2" d="M15,5H5v10h10V5Z"/>
      </g>
    </mask>
    <mask id="mask-2" x="5" y="5" width="10" height="10" maskUnits="userSpaceOnUse">
      <g id="mask2_0_1">
        <path class="cls-2" d="M10,15c2.76,0,5-2.24,5-5s-2.24-5-5-5-5,2.24-5,5,2.24,5,5,5Z"/>
      </g>
    </mask>
  </defs>
  <g id="Capa_1-2" data-name="Capa_1">
    <g class="cls-3">
      <g>
        <path class="cls-5" d="M10,0C4.48,0,0,4.48,0,10c0,7.5,10,18.57,10,18.57,0,0,10-11.07,10-18.57C20,4.48,15.52,0,10,0ZM10,13.57c-1.97,0-3.57-1.6-3.57-3.57s1.6-3.57,3.57-3.57,3.57,1.6,3.57,3.57-1.6,3.57-3.57,3.57Z"/>
        <g class="cls-1">
          <g class="cls-4">
            <path class="cls-5" d="M5,5h10v10H5V5Z"/>
          </g>
        </g>
      </g>
    </g>
    <circle class="cls-6" cx="10" cy="10" r="6"/>
    <path class="cls-5" d="M9.37,16v-1.43c-.57-.13-1.06-.39-1.47-.77-.41-.38-.71-.91-.91-1.6l1.19-.5c.16.53.4.94.71,1.22.32.28.73.42,1.24.42.44,0,.81-.1,1.12-.31.3-.21.46-.52.46-.96,0-.39-.12-.7-.35-.93-.24-.23-.78-.49-1.64-.77-.92-.3-1.55-.66-1.89-1.08-.34-.42-.51-.93-.51-1.52,0-.72.22-1.28.67-1.68.45-.4.91-.63,1.38-.68v-1.4h1.28v1.4c.53.09.98.29,1.32.61.35.32.6.7.76,1.16l-1.19.53c-.13-.36-.31-.62-.55-.8-.24-.18-.56-.27-.96-.27-.47,0-.83.11-1.07.33-.25.22-.37.49-.37.81,0,.37.16.66.48.87.32.21.88.43,1.67.67.74.22,1.3.57,1.68,1.06.38.48.57,1.04.57,1.68,0,.79-.22,1.39-.67,1.8-.45.41-1.01.67-1.67.77v1.4h-1.28Z"/>
  </g>
</svg>