<?xml version="1.0" encoding="UTF-8"?>
<svg id="Capa_2" xmlns="http://www.w3.org/2000/svg" xmlns:xlink="http://www.w3.org/1999/xlink" viewBox="0 0 20 28.57">
  <defs>
    <style>
      .cls-1 {
        fill: #fff;
      }

      .cls-2 {
        mask: url(#mask);
      }

      .cls-3 {
        fill: #fefefe;
      }

      .cls-4 {
        fill: #00c0ff;
      }
    </style>
    <mask id="mask" x="0" y="0" width="20" height="28.57" maskUnits="userSpaceOnUse">
      <g id="mask1_0_1">
        <path class="cls-1" d="M0,0h20v28.57H0V0Z"/>
      </g>
    </mask>
  </defs>
  <g id="Capa_1-2" data-name="Capa_1">
    <g class="cls-2">
      <path class="cls-4" d="M10,0C4.48,0,0,4.48,0,10c0,7.5,10,18.57,10,18.57,0,0,10-11.07,10-18.57C20,4.48,15.52,0,10,0ZM10,13.57c-1.97,0-3.57-1.6-3.57-3.57s1.6-3.57,3.57-3.57,3.57,1.6,3.57,3.57-1.6,3.57-3.57,3.57Z"/>
    </g>
    <circle class="cls-4" cx="10" cy="10" r="6"/>
    <circle class="cls-3" cx="10" cy="10" r="7"/>
    <path class="cls-4" d="M9.27,17v-1.67c-.66-.16-1.23-.45-1.71-.9-.48-.44-.83-1.06-1.06-1.87l1.39-.58c.19.62.46,1.1.83,1.42s.85.49,1.45.49c.51,0,.95-.12,1.3-.36.36-.24.53-.61.53-1.12,0-.45-.14-.81-.41-1.08s-.91-.57-1.91-.9c-1.07-.35-1.81-.77-2.21-1.25-.4-.49-.6-1.08-.6-1.78,0-.84.26-1.5.79-1.96.52-.47,1.06-.73,1.61-.8v-1.63h1.5v1.63c.62.1,1.14.34,1.54.71.41.37.7.82.89,1.35l-1.39.62c-.15-.42-.36-.73-.64-.93-.27-.21-.65-.31-1.12-.31-.55,0-.97.13-1.25.38-.29.25-.43.57-.43.94,0,.43.19.76.56,1.01.37.25,1.02.5,1.95.78.86.26,1.51.67,1.96,1.24.44.56.66,1.21.66,1.95,0,.92-.26,1.62-.79,2.1-.52.48-1.17.78-1.95.9v1.63h-1.5Z"/>
  </g>
</svg>