<?xml version="1.0" encoding="UTF-8"?>
<svg id="Capa_2" xmlns="http://www.w3.org/2000/svg" xmlns:xlink="http://www.w3.org/1999/xlink" viewBox="0 0 20 28.57">
  <defs>
    <style>
      .cls-1 {
        fill: #fff;
      }

      .cls-2 {
        mask: url(#mask);
      }

      .cls-3 {
        fill: #fefefe;
      }

      .cls-4 {
        fill: #98989a;
      }
    </style>
    <mask id="mask" x="0" y="0" width="20" height="28.57" maskUnits="userSpaceOnUse">
      <g id="mask1_0_1">
        <path class="cls-1" d="M0,0h20v28.57H0V0Z"/>
      </g>
    </mask>
  </defs>
  <g id="Capa_1-2" data-name="Capa_1">
    <g class="cls-2">
      <path class="cls-4" d="M10,0C4.48,0,0,4.48,0,10c0,7.5,10,18.57,10,18.57,0,0,10-11.07,10-18.57C20,4.48,15.52,0,10,0ZM10,13.57c-1.97,0-3.57-1.6-3.57-3.57s1.6-3.57,3.57-3.57,3.57,1.6,3.57,3.57-1.6,3.57-3.57,3.57Z"/>
    </g>
    <circle class="cls-4" cx="10" cy="10" r="6"/>
    <circle class="cls-4" cx="10" cy="10" r="6"/>
    <path class="cls-3" d="M12.45,13.43l.98-.98c.07-.07.1-.15.1-.24s-.03-.18-.1-.24l-2.38-2.4c.05-.13.08-.26.1-.39.02-.13.03-.27.03-.44,0-.66-.24-1.23-.71-1.71-.47-.47-1.04-.71-1.71-.71-.2,0-.4.03-.6.08-.2.05-.39.13-.58.22l1.65,1.64-.98.98-1.65-1.65c-.09.19-.17.38-.22.58-.05.2-.08.4-.08.59,0,.66.24,1.23.71,1.71.47.47,1.04.71,1.71.71.15,0,.29-.01.43-.03.13-.02.27-.06.39-.1l2.4,2.38c.07.07.15.1.25.1s.17-.03.24-.1ZM10,17c-.97,0-1.88-.18-2.73-.55-.85-.37-1.59-.87-2.22-1.5-.63-.63-1.13-1.37-1.5-2.22-.37-.85-.55-1.76-.55-2.73s.18-1.88.55-2.73c.37-.85.87-1.59,1.5-2.22.63-.63,1.37-1.13,2.22-1.5s1.76-.55,2.73-.55,1.88.18,2.73.55,1.59.87,2.22,1.5c.63.63,1.13,1.37,1.5,2.22.37.85.55,1.76.55,2.73s-.18,1.88-.55,2.73c-.37.85-.87,1.59-1.5,2.22-.63.63-1.37,1.13-2.22,1.5-.85.37-1.76.55-2.73.55Z"/>
  </g>
</svg>