<?xml version="1.0" encoding="UTF-8"?>
<svg id="Capa_2" xmlns="http://www.w3.org/2000/svg" xmlns:xlink="http://www.w3.org/1999/xlink" viewBox="0 0 20 28.57">
  <defs>
    <style>
      .cls-1 {
        mask: url(#mask-1);
      }

      .cls-2 {
        fill: #fff;
      }

      .cls-3 {
        mask: url(#mask);
      }

      .cls-4 {
        mask: url(#mask-2);
      }

      .cls-5 {
        fill: #9f2241;
      }

      .cls-6 {
        fill: #fefefe;
      }
    </style>
    <mask id="mask" x="0" y="0" width="20" height="28.57" maskUnits="userSpaceOnUse">
      <g id="mask0_0_1">
        <path class="cls-2" d="M0,0h20v28.57H0V0Z"/>
      </g>
    </mask>
    <mask id="mask-1" x="5" y="5" width="10" height="10" maskUnits="userSpaceOnUse">
      <g id="mask1_0_1">
        <path class="cls-2" d="M15,5H5v10h10V5Z"/>
      </g>
    </mask>
    <mask id="mask-2" x="5" y="5" width="10" height="10" maskUnits="userSpaceOnUse">
      <g id="mask2_0_1">
        <path class="cls-2" d="M10,15c2.76,0,5-2.24,5-5s-2.24-5-5-5-5,2.24-5,5,2.24,5,5,5Z"/>
      </g>
    </mask>
  </defs>
  <g id="Capa_1-2" data-name="Capa_1">
    <g class="cls-3">
      <g>
        <path class="cls-5" d="M10,0C4.48,0,0,4.48,0,10c0,7.5,10,18.57,10,18.57,0,0,10-11.07,10-18.57C20,4.48,15.52,0,10,0ZM10,13.57c-1.97,0-3.57-1.6-3.57-3.57s1.6-3.57,3.57-3.57,3.57,1.6,3.57,3.57-1.6,3.57-3.57,3.57Z"/>
        <g class="cls-1">
          <g class="cls-4">
            <path class="cls-5" d="M5,5h10v10H5V5Z"/>
          </g>
        </g>
      </g>
    </g>
    <path class="cls-6" d="M10,16c-.83,0-1.61-.16-2.34-.47-.73-.32-1.36-.74-1.9-1.28s-.97-1.18-1.28-1.9c-.32-.73-.47-1.51-.47-2.34s.16-1.61.47-2.34c.32-.73.74-1.36,1.28-1.9s1.17-.97,1.9-1.28c.73-.32,1.51-.47,2.34-.47s1.61.16,2.34.47c.73.32,1.36.74,1.9,1.28s.97,1.17,1.28,1.9c.31.73.47,1.51.47,2.34s-.16,1.61-.47,2.34c-.32.73-.74,1.36-1.28,1.9s-1.18.97-1.9,1.28c-.73.31-1.51.47-2.34.47ZM9.4,14.77v-1.17c-.33,0-.61-.12-.85-.35-.23-.24-.35-.52-.35-.85v-.6l-2.88-2.88c-.03.18-.06.36-.08.54-.03.18-.04.36-.04.54,0,1.21.4,2.27,1.19,3.18s1.8,1.44,3.01,1.59ZM13.54,13.24c.2-.22.38-.46.54-.71s.29-.52.4-.8c.11-.27.19-.56.24-.85.06-.29.08-.59.08-.89,0-.98-.27-1.88-.82-2.68s-1.27-1.39-2.18-1.76v.24c0,.33-.12.61-.35.85-.24.24-.52.35-.85.35h-1.2v1.2c0,.17-.06.31-.17.43-.11.12-.26.17-.43.17h-1.2v1.2h3.6c.17,0,.31.06.43.17s.17.26.17.43v1.8h.6c.26,0,.5.08.7.23.21.16.36.36.44.61Z"/>
  </g>
</svg>