<?xml version="1.0" encoding="UTF-8"?>
<svg id="Capa_2" xmlns="http://www.w3.org/2000/svg" xmlns:xlink="http://www.w3.org/1999/xlink" viewBox="0 0 20 28.57">
  <defs>
    <style>
      .cls-1 {
        fill: #fff;
      }

      .cls-2 {
        mask: url(#mask);
      }

      .cls-3 {
        fill: #fefefe;
      }

      .cls-4 {
        fill: #00c0ff;
      }
    </style>
    <mask id="mask" x="0" y="0" width="20" height="28.57" maskUnits="userSpaceOnUse">
      <g id="mask6_0_1">
        <path class="cls-1" d="M0,0h20v28.57H0V0Z"/>
      </g>
    </mask>
  </defs>
  <g id="Capa_1-2" data-name="Capa_1">
    <g class="cls-2">
      <path class="cls-4" d="M10,0C4.48,0,0,4.48,0,10c0,7.5,10,18.57,10,18.57,0,0,10-11.07,10-18.57C20,4.48,15.52,0,10,0ZM10,13.57c-1.97,0-3.57-1.6-3.57-3.57s1.6-3.57,3.57-3.57,3.57,1.6,3.57,3.57-1.6,3.57-3.57,3.57Z"/>
    </g>
    <circle class="cls-4" cx="10" cy="10" r="6"/>
    <path class="cls-3" d="M10,17c-.97,0-1.88-.18-2.73-.55-.85-.37-1.59-.87-2.22-1.5-.63-.63-1.13-1.37-1.5-2.22-.37-.85-.55-1.76-.55-2.73s.18-1.88.55-2.73c.37-.85.87-1.59,1.5-2.22.63-.63,1.37-1.13,2.22-1.5.85-.37,1.76-.55,2.73-.55s1.88.18,2.73.55c.85.37,1.59.87,2.22,1.5.63.63,1.13,1.37,1.5,2.22.37.85.55,1.76.55,2.73s-.18,1.88-.55,2.73c-.37.85-.87,1.59-1.5,2.22-.63.63-1.37,1.13-2.22,1.5-.85.37-1.76.55-2.73.55ZM9.3,15.57v-1.37c-.38,0-.71-.14-.99-.41-.27-.27-.41-.6-.41-.99v-.7l-3.36-3.36c-.03.21-.07.42-.1.63-.03.21-.04.42-.04.63,0,1.41.46,2.65,1.39,3.71.93,1.06,2.1,1.68,3.51,1.85ZM14.13,13.78c.23-.26.44-.53.63-.83.19-.3.34-.61.46-.93.12-.32.22-.65.28-.99.06-.34.1-.68.1-1.03,0-1.14-.32-2.19-.95-3.13-.64-.94-1.48-1.63-2.55-2.05v.28c0,.38-.14.71-.41.99-.27.27-.6.41-.99.41h-1.4v1.4c0,.2-.07.37-.2.5-.13.13-.3.2-.5.2h-1.4v1.4h4.2c.2,0,.36.07.5.2.13.13.2.3.2.5v2.1h.7c.3,0,.58.09.82.27.25.18.41.42.51.71Z"/>
  </g>
</svg>